<svg width="190" height="67" viewBox="0 0 190 67" fill="none" xmlns="http://www.w3.org/2000/svg">
<path d="M66.882 22.1117C64.156 22.1117 61.4816 22.3294 58.8647 22.7246L65.8691 15.5727L51.3093 22.4926L55.5848 14.8796L48.4197 20.3015L54.1989 4.38224L43.6822 17.7638L44.4914 8.42078L39.6104 16.9561L38.1326 0L34.5515 16.1484L31.0852 7.4985L30.6232 16.9561L22.0721 2.65226L25.6532 19.1472L19.1825 12.571L22.8813 21.4529L8.43629 11.8779L19.415 25.374L10.1695 22.3752L17.9113 28.6049L0.923974 26.4739L16.0634 33.4797L6.8179 34.9491L15.369 37.2548L0 42.6767H16.0634L8.55107 47.8667L17.7392 45.6183L5.43194 57.9029L14.9959 53.2313C20.3561 42.9345 28.999 34.6684 39.4784 29.7448C26.5858 37.5527 17.2944 50.6936 14.6975 66.1088C23.9086 41.7143 46.896 24.0651 74.1935 22.6129C71.8032 22.2835 69.3641 22.1088 66.8849 22.1088L66.882 22.1117Z" fill="#F19817"/>
<path d="M48.5374 41.9346H42.0753C41.665 42.3442 41.4326 42.5762 41.0222 42.9857V49.4359C41.4326 49.8455 41.665 50.0775 42.0753 50.4871H48.5374C48.9477 50.0775 49.1802 49.8455 49.5905 49.4359V42.9857C49.1802 42.5762 48.9477 42.3442 48.5374 41.9346Z" fill="#2877BA"/>
<path d="M42.0753 52.04C41.665 52.4496 41.4326 52.6816 41.0222 53.0912V59.9052C44.1729 59.338 47.0826 58.0807 49.5876 56.2934V53.0912L48.5345 52.04H42.0724H42.0753Z" fill="#2877BA"/>
<path d="M50.7153 42.986V49.4362L51.7684 50.4874H55.14C56.7756 47.9555 57.889 45.054 58.3252 41.9377H51.7712L50.7181 42.9889L50.7153 42.986Z" fill="#2877BA"/>
<path d="M50.7153 53.0905V55.4392C51.9434 54.4339 53.0568 53.291 54.0324 52.0422H51.7684C51.358 52.4518 51.1256 52.6838 50.7153 53.0934V53.0905Z" fill="#2877BA"/>
<path d="M38.8442 52.04H32.3821L31.329 53.0912V59.424C33.1999 59.9596 35.1742 60.2489 37.2144 60.2489C38.124 60.2489 39.0164 60.1859 39.8945 60.0741V53.0912C39.4841 52.6816 39.2517 52.4496 38.8414 52.04H38.8442Z" fill="#2877BA"/>
<path d="M79.1004 29.2403C76.7474 28.7047 70.9539 27.5905 68.4832 27.3728C67.2121 27.2611 65.9466 27.201 64.6927 27.1809C48.4944 29.8389 34.1097 38.3055 23.9144 50.4841H29.1569L30.21 49.4329V44.8789C30.5802 44.5896 30.9561 44.3032 31.3349 44.0225V49.4329C31.7452 49.8425 31.9776 50.0745 32.388 50.4841H38.85L39.9031 49.4329V42.9828L38.85 41.9316H34.2962C35.0968 41.3988 35.9117 40.8804 36.7352 40.3763H38.8472C39.2575 39.9667 39.4899 39.7347 39.9003 39.3252V38.5547C40.2733 38.3513 40.6492 38.1537 41.0251 37.9561V39.3252C41.4355 39.7347 41.6679 39.9667 42.0782 40.3763H48.5403C48.9506 39.9667 49.1831 39.7347 49.5934 39.3252V34.1438C49.9664 34.0035 50.3423 33.866 50.7182 33.7314V39.3252C51.1286 39.7347 51.361 39.9667 51.7713 40.3763H58.486C58.5175 39.9123 58.5376 39.4426 58.5376 38.97C58.5376 36.4609 58.0986 34.0579 57.298 31.8267H56.8561C64.1044 29.8933 71.654 28.9825 79.1032 29.2374L79.1004 29.2403Z" fill="#2877BA"/>
<path d="M21.6389 53.4887C23.9746 55.9863 26.9044 57.9225 30.2043 59.071V53.0934C29.7939 52.6838 29.5615 52.4518 29.1512 52.0422H22.646C22.3046 52.4747 21.9688 52.913 21.636 53.354V53.4887H21.6389Z" fill="#2877BA"/>
<path d="M93.6656 30.04C93.6656 27.8432 95.3672 26.1848 97.5681 26.1848H98.2366C100.438 26.1848 102.139 27.8461 102.139 30.04V30.4783L99.7288 30.7074V30.04C99.7288 29.1607 99.0774 28.4733 98.1993 28.4733H97.6054C96.7244 28.4733 96.0759 29.1607 96.0759 30.04V30.1546C96.0759 32.847 102.234 30.9365 102.234 35.9002V36.0721C102.234 38.2689 100.532 39.9273 98.3313 39.9273H97.4705C95.2696 39.9273 93.568 38.2661 93.568 36.0721V35.6338L95.9784 35.4047V36.0721C95.9784 36.9514 96.6297 37.6388 97.5078 37.6388H98.2912C99.1721 37.6388 99.8206 36.9514 99.8206 36.0721V35.9002C99.8206 33.0561 93.6627 35.3073 93.6627 30.1546V30.04H93.6656Z" fill="white"/>
<path d="M104.627 39.7379V26.3735H107.037V39.7379H104.627ZM111.608 39.7379L107.324 33.0557L111.608 26.3735H114.4L110.022 33.0557L114.4 39.7379H111.608Z" fill="white"/>
<path d="M117.408 26.3735L119.568 31.2427L121.729 26.3735H124.349L120.774 34.1241V39.7379H118.363V34.1241L114.788 26.3735H117.408Z" fill="white"/>
<path d="M125.881 39.7379V29.1117L127.632 26.3735H134.43V28.6649H128.289V31.9101H133.224V34.2014H128.289V37.4466H134.43V39.7379H125.878H125.881Z" fill="white"/>
<path d="M144.169 39.7379L139.061 31.1654L138.946 30.5925V39.7379H136.536V26.3735H138.659L143.767 34.9461L143.882 35.519V26.3735H146.292V39.7379H144.169Z" fill="white"/>
<path d="M149.161 39.7379V26.3735H157.71V28.6649H151.569V31.9101H156.504V34.2014H151.569V37.4466H157.71V39.7379H149.161Z" fill="white"/>
<path d="M175.064 32.3282H179.443V39.7351H178.505L177.816 38.6839C177.185 39.4658 176.267 39.9241 175.159 39.9241H174.585C172.384 39.9241 170.683 38.2629 170.683 36.0689V30.0369C170.683 27.84 172.384 26.1816 174.585 26.1816H175.541C177.742 26.1816 179.443 27.8429 179.443 30.0369V30.7243L177.033 30.9534V30.0369C177.033 29.1576 176.381 28.4701 175.503 28.4701H174.622C173.741 28.4701 173.093 29.1576 173.093 30.0369V36.0689C173.093 36.9482 173.744 37.6356 174.622 37.6356H175.503C176.384 37.6356 177.033 36.9482 177.033 36.0689V34.6167H175.061V32.3254L175.064 32.3282Z" fill="white"/>
<path d="M168.499 30.9362C168.499 32.6175 167.503 33.9723 166.051 34.5251L168.806 39.7379H166.146L163.604 34.7943H162.034V39.7379H159.624V26.3735H164.596C166.797 26.3735 168.499 28.0348 168.499 30.2288V30.9362ZM166.089 30.2288C166.089 29.3495 165.437 28.662 164.559 28.662H162.034V32.5001H164.559C165.44 32.5001 166.089 31.8127 166.089 30.9334V30.2259V30.2288Z" fill="white"/>
<path d="M183.059 26.3735L185.219 31.2427L187.38 26.3735H190L186.425 34.1241V39.7379H184.014V34.1241L180.436 26.3735H183.056H183.059Z" fill="white"/>
</svg>
