<svg aria-hidden="true" style="position: absolute; width: 0; height: 0; overflow: hidden;" version="1.1" xmlns="http://www.w3.org/2000/svg" xmlns:xlink="http://www.w3.org/1999/xlink">
<defs>
<symbol id="icon-arrow-bot" viewBox="0 0 32 32">
<path fill="none" stroke="#fff" style="stroke: var(--color1, #fff)" stroke-linejoin="round" stroke-linecap="round" stroke-miterlimit="4" stroke-width="4" d="M2.667 9.333l13.333 13.333 13.333-13.333"></path>
</symbol>
<symbol id="icon-nstagram" viewBox="0 0 32 32">
<path fill="#fff" style="fill: var(--color1, #fff)" d="M23.12 7.28c-0.316 0-0.626 0.094-0.889 0.27s-0.468 0.426-0.589 0.718c-0.121 0.292-0.153 0.614-0.091 0.924s0.214 0.595 0.438 0.819c0.224 0.224 0.509 0.376 0.819 0.438s0.632 0.030 0.924-0.091c0.292-0.121 0.542-0.326 0.718-0.589s0.27-0.572 0.27-0.889c0-0.424-0.169-0.831-0.469-1.131s-0.707-0.469-1.131-0.469zM29.253 10.507c-0.026-1.106-0.233-2.201-0.613-3.24-0.339-0.889-0.867-1.694-1.547-2.36-0.66-0.683-1.467-1.208-2.36-1.533-1.036-0.392-2.132-0.604-3.24-0.627-1.413-0.080-1.867-0.080-5.493-0.080s-4.080 0-5.493 0.080c-1.108 0.023-2.204 0.235-3.24 0.627-0.891 0.329-1.697 0.853-2.36 1.533-0.683 0.66-1.208 1.467-1.533 2.36-0.392 1.036-0.604 2.132-0.627 3.24-0.080 1.413-0.080 1.867-0.080 5.493s0 4.080 0.080 5.493c0.023 1.108 0.235 2.204 0.627 3.24 0.326 0.893 0.85 1.7 1.533 2.36 0.663 0.681 1.469 1.205 2.36 1.533 1.036 0.392 2.132 0.604 3.24 0.627 1.413 0.080 1.867 0.080 5.493 0.080s4.080 0 5.493-0.080c1.108-0.023 2.204-0.235 3.24-0.627 0.893-0.326 1.7-0.85 2.36-1.533 0.683-0.663 1.211-1.469 1.547-2.36 0.38-1.039 0.587-2.134 0.613-3.24 0-1.413 0.080-1.867 0.080-5.493s0-4.080-0.080-5.493zM26.853 21.333c-0.010 0.846-0.163 1.685-0.453 2.48-0.213 0.58-0.555 1.105-1 1.533-0.433 0.441-0.956 0.782-1.533 1-0.795 0.29-1.634 0.444-2.48 0.453-1.333 0.067-1.827 0.080-5.333 0.080s-4 0-5.333-0.080c-0.879 0.016-1.754-0.119-2.587-0.4-0.552-0.229-1.052-0.57-1.467-1-0.443-0.428-0.78-0.953-0.987-1.533-0.326-0.806-0.506-1.664-0.533-2.533 0-1.333-0.080-1.827-0.080-5.333s0-4 0.080-5.333c0.006-0.865 0.164-1.723 0.467-2.533 0.235-0.563 0.595-1.064 1.053-1.467 0.405-0.458 0.906-0.823 1.467-1.067 0.813-0.293 1.669-0.447 2.533-0.453 1.333 0 1.827-0.080 5.333-0.080s4 0 5.333 0.080c0.846 0.010 1.685 0.163 2.48 0.453 0.606 0.225 1.15 0.59 1.587 1.067 0.437 0.41 0.778 0.91 1 1.467 0.296 0.812 0.45 1.669 0.453 2.533 0.067 1.333 0.080 1.827 0.080 5.333s-0.013 4-0.080 5.333zM16 9.16c-1.352 0.003-2.673 0.406-3.796 1.159s-1.998 1.822-2.513 3.072c-0.516 1.25-0.649 2.625-0.384 3.951s0.918 2.543 1.875 3.499c0.957 0.955 2.176 1.605 3.502 1.868s2.701 0.127 3.95-0.391c1.249-0.518 2.317-1.395 3.067-2.519s1.152-2.446 1.152-3.799c0.002-0.9-0.174-1.791-0.518-2.623s-0.849-1.587-1.486-2.223-1.393-1.139-2.225-1.482c-0.832-0.342-1.724-0.517-2.624-0.513zM16 20.44c-0.878 0-1.737-0.26-2.467-0.748s-1.299-1.181-1.635-1.993c-0.336-0.811-0.424-1.704-0.253-2.565s0.594-1.652 1.215-2.273c0.621-0.621 1.412-1.044 2.273-1.215s1.754-0.083 2.565 0.253c0.811 0.336 1.505 0.905 1.993 1.635s0.748 1.589 0.748 2.467c0 0.583-0.115 1.16-0.338 1.699s-0.55 1.028-0.962 1.441c-0.412 0.412-0.902 0.739-1.441 0.962s-1.116 0.338-1.699 0.338z"></path>
</symbol>
<symbol id="icon-tiktok" viewBox="0 0 32 32">
<path fill="#fff" style="fill: var(--color1, #fff)" d="M24.178 5.013c-1.215-1.387-1.885-3.169-1.884-5.013h-5.493v22.044c-0.042 1.193-0.546 2.323-1.405 3.152s-2.006 1.292-3.2 1.293c-2.524 0-4.622-2.062-4.622-4.622 0-3.058 2.951-5.351 5.991-4.409v-5.618c-6.133-0.818-11.502 3.947-11.502 10.027 0 5.92 4.907 10.133 10.116 10.133 5.582 0 10.116-4.533 10.116-10.133v-11.182c2.228 1.6 4.902 2.458 7.644 2.453v-5.493c0 0-3.342 0.16-5.76-2.631z"></path>
</symbol>
<symbol id="icon-facebook" viewBox="0 0 32 32">
<path fill="#fff" style="fill: var(--color1, #fff)" d="M18.4 18.4h4l1.6-6.4h-5.6v-3.2c0-1.648 0-3.2 3.2-3.2h2.4v-5.376c-0.522-0.069-2.491-0.224-4.571-0.224-4.344 0-7.429 2.651-7.429 7.52v4.48h-4.8v6.4h4.8v13.6h6.4v-13.6z"></path>
</symbol>
<symbol id="icon-phone" viewBox="0 0 32 32">
<path fill="#fff" style="fill: var(--color1, #fff)" d="M1.882 12.913c3.614 7.87 10.035 14.107 18.007 17.491l1.28 0.57c1.417 0.631 3.012 0.742 4.503 0.312s2.783-1.371 3.647-2.66l1.673-2.492c0.262-0.391 0.368-0.866 0.297-1.331s-0.313-0.887-0.679-1.182l-5.67-4.574c-0.197-0.159-0.425-0.277-0.669-0.346s-0.499-0.088-0.751-0.056-0.494 0.115-0.713 0.243c-0.219 0.128-0.41 0.299-0.561 0.503l-1.754 2.366c-4.503-2.224-8.148-5.87-10.372-10.374l2.364-1.754c0.204-0.151 0.375-0.342 0.503-0.561s0.211-0.461 0.243-0.713c0.032-0.252 0.013-0.507-0.056-0.751s-0.187-0.472-0.346-0.669l-4.574-5.67c-0.295-0.366-0.717-0.609-1.182-0.679s-0.94 0.035-1.331 0.297l-2.509 1.683c-1.296 0.869-2.242 2.17-2.668 3.672s-0.306 3.105 0.34 4.526l0.977 2.148z"></path>
</symbol>
<symbol id="icon-star" viewBox="0 0 32 32">
<path d="M32 12.408l-11.056-1.607-4.944-10.018-4.944 10.018-11.056 1.607 8 7.798-1.889 11.011 9.889-5.199 9.889 5.199-1.889-11.011 8-7.798z"></path>
</symbol>
<symbol id="icon-plus" viewBox="0 0 32 32">
<path d="M31 12h-11v-11c0-0.552-0.448-1-1-1h-6c-0.552 0-1 0.448-1 1v11h-11c-0.552 0-1 0.448-1 1v6c0 0.552 0.448 1 1 1h11v11c0 0.552 0.448 1 1 1h6c0.552 0 1-0.448 1-1v-11h11c0.552 0 1-0.448 1-1v-6c0-0.552-0.448-1-1-1z"></path>
</symbol>
<symbol id="icon-arrow-right" viewBox="0 0 32 32">
<path d="M19.414 27.414l10-10c0.781-0.781 0.781-2.047 0-2.828l-10-10c-0.781-0.781-2.047-0.781-2.828 0s-0.781 2.047 0 2.828l6.586 6.586h-19.172c-1.105 0-2 0.895-2 2s0.895 2 2 2h19.172l-6.586 6.586c-0.39 0.39-0.586 0.902-0.586 1.414s0.195 1.024 0.586 1.414c0.781 0.781 2.047 0.781 2.828 0z"></path>
</symbol>
<symbol id="icon-arrow-down" viewBox="0 0 32 32">
<path d="M27.414 19.414l-10 10c-0.781 0.781-2.047 0.781-2.828 0l-10-10c-0.781-0.781-0.781-2.047 0-2.828s2.047-0.781 2.828 0l6.586 6.586v-19.172c0-1.105 0.895-2 2-2s2 0.895 2 2v19.172l6.586-6.586c0.39-0.39 0.902-0.586 1.414-0.586s1.024 0.195 1.414 0.586c0.781 0.781 0.781 2.047 0 2.828z"></path>
</symbol>
<symbol id="icon-arrow-left" viewBox="0 0 32 32">
<path d="M12.586 27.414l-10-10c-0.781-0.781-0.781-2.047 0-2.828l10-10c0.781-0.781 2.047-0.781 2.828 0s0.781 2.047 0 2.828l-6.586 6.586h19.172c1.105 0 2 0.895 2 2s-0.895 2-2 2h-19.172l6.586 6.586c0.39 0.39 0.586 0.902 0.586 1.414s-0.195 1.024-0.586 1.414c-0.781 0.781-2.047 0.781-2.828 0z"></path>
</symbol>
</defs>
</svg>
